<svg xmlns="http://www.w3.org/2000/svg" width="166" height="17"><g fill="#FFF"><path d="M114.347 3.26H99.626l-3.788 10.408h2.866l2.865-7.905h3.59c.395 0 .592.33.46.725l-2.601 7.18h2.865l2.602-7.18c.132-.395.593-.725.988-.725h2.865c.396 0 .593.33.461.725l-2.601 7.18h2.865L116.06 5.4c.428-1.152-.33-2.14-1.713-2.14zm20.024 7.213c-.131.395-.593.725-.988.725h-3.59c-.395 0-.592-.33-.46-.725l2.601-7.18h-2.865l-2.997 8.234c-.428 1.186.33 2.14 1.745 2.14h6.455c.988 0 2.042-.658 2.306-1.448l3.26-8.991h-2.865l-2.602 7.245zm-47.821 0l.264-.724h8.63l.921-2.503.659-1.812c.428-1.185-.33-2.14-1.746-2.14h-7.18c-.987 0-2.041.658-2.305 1.449l-2.503 6.784c-.428 1.186.33 2.14 1.746 2.14h8.99l.923-2.502h-7.904c-.428 0-.626-.297-.494-.692zM88 6.521c.132-.395.593-.725.988-.725h4.314c.396 0 .593.33.461.725l-.263.725h-5.763L88 6.52zm74.135-3.261l-1.45 3.953h-5.038l1.449-3.953h-2.865l-3.788 10.44h2.865l1.417-3.951h5.038l-1.416 3.952h2.866L165 3.26zm-44 1.45l-3.26 8.99h2.865l2.601-7.179c.132-.395.593-.725.988-.725h5.04l.921-2.503h-6.817c-1.02-.033-2.075.626-2.338 1.417zm-44.922 0l-1.054 2.865c-.428 1.185.329 2.14 1.745 2.14h4.677c.395 0 .593.33.46.725-.13.395-.592.725-.987.725h-7.18l-.922 2.503h8.991c.988 0 2.042-.659 2.306-1.45l1.053-2.865c.429-1.185-.329-2.14-1.745-2.14H75.88c-.395 0-.593-.33-.46-.725.13-.395.592-.725.987-.725h7.18l.922-2.503h-8.991c-.988 0-2.009.66-2.305 1.45zm67.91 0l-1.054 2.865c-.428 1.185.33 2.14 1.745 2.14h4.677c.395 0 .593.33.461.725-.132.395-.593.725-.988.725h-7.18l-.922 2.503h8.991c.988 0 2.042-.659 2.306-1.45l1.054-2.865c.428-1.185-.33-2.14-1.746-2.14h-4.677c-.395 0-.592-.33-.46-.725.131-.395.592-.725.987-.725h7.18l.922-2.503h-8.99c-.989 0-2.01.66-2.306 1.45zM61.39 2.766c1.58 1.614 2.403 3.557 2.436 5.83.033 2.404-.955 4.479-3.063 6.224-2.37 1.943-5.104 2.339-8.233 1.186-2.931-1.087-5.599-1.91-9.452-1.91-3.853 0-7.838.593-7.838.593.889-.758 3.688-1.779 5.203-2.372.659-.23 1.35-.46 1.877-.691.659-.297 1.087-.56.824-.89-.428-.592-2.57-.032-3.162.132-1.383.395-2.668.824-5.73 2.108-2.602 1.12-5.896 1.58-8.992 1.746-3.062.098-5.73-.89-7.146-2.306 2.865.692 4.347 1.219 7.41.659.593-.099 2.766-.988 2.437-1.515-.461-.725-2.8 1.449-9.584-.955-2.173-.79-4.512-2.306-11.494-1.746-1.284.1-4.248.626-6.587-.066 4.71-1.844 8.464-2.766 10.44-3.128 3.722-.725 6.554-.297 8.465.428-.824-1.383-2.964-2.503-2.964-2.503 1.12.164 2.568.494 3.886 1.185 1.317.692 4.05 3.294 8.036 4.348 2.075.56 4.413.955 7.673.626 1.581-.165 1.878-.165 2.734-.33 1.153-.23 2.009-1.054 1.778-1.712-.23-.66-1.087-.988-2.042-.758-.988.23-3.853 1.91-8.101 1.054-4.249-.856-6.324-4.512-10.243-5.335 4.446-.692 7.048 1.91 10.11 2.766 2.142.593 5.6.461 7.477.066.757-.165 1.153-.428.362-.79-.79-.363-5.434-1.021-9.65-1.186 2.899-1.416 7.345-.494 7.345-.494-1.021-1.021-3.327-1.515-3.327-1.515 2.8-.296 5.6-.264 7.608.922 1.845 1.054 2.306 1.647 3.327 2.404.296.23 1.383 1.153 2.074.066.626-.955-.757-1.548-1.778-1.91-1.087-.395-2.042-1.087-2.668-2.075 1.153.264 2.503.758 4.117.725C48.743 1.58 52.991.56 52.991.56c3.557-.659 6.356.066 8.398 2.206zm-5.5 12.35a6.585 6.585 0 0 0 6.586-6.586c0-3.623-2.964-6.587-6.587-6.587-3.623 0-6.587 2.964-6.587 6.587a6.585 6.585 0 0 0 6.587 6.587z"/><path d="M55.89 3.326a5.215 5.215 0 0 0-5.204 5.204 5.215 5.215 0 0 0 5.203 5.204 5.215 5.215 0 0 0 5.204-5.204 5.173 5.173 0 0 0-5.204-5.204zm2.436 8.662a4.32 4.32 0 0 0 .923-2.7 4.378 4.378 0 0 0-3.524-4.282c.197-.263.395-.494.625-.725 2.042.363 3.623 2.141 3.623 4.282 0 1.383-.659 2.602-1.647 3.425z"/></g></svg>